HIERARCHY
ROOT hip
{
  OFFSET 0 0 0
  CHANNELS 6 Xposition Yposition Zposition Zrotation Yrotation Xrotation
  JOINT abdomen
  {
    OFFSET 0 20.6881 -0.73152
    CHANNELS 3 Zrotation Xrotation Yrotation
    JOINT chest
    {
      OFFSET 0 11.7043 -0.48768
      CHANNELS 3 Zrotation Xrotation Yrotation
      JOINT neck
      {
        OFFSET 0 22.1894 -2.19456
        CHANNELS 3 Zrotation Xrotation Yrotation
        JOINT head
        {
          OFFSET -0.24384 7.07133 1.2192
          CHANNELS 3 Zrotation Xrotation Yrotation
          JOINT leftEye
          {
            OFFSET 4.14528 8.04674 8.04672
            CHANNELS 3 Zrotation Xrotation Yrotation
            End Site
            {
              OFFSET 1 0 0
            }
          }
          JOINT rightEye
          {
            OFFSET -3.6576 8.04674 8.04672
            CHANNELS 3 Zrotation Xrotation Yrotation
            End Site
            {
              OFFSET 1 0 0
            }
          }
        }
      }
      JOINT rCollar
      {
        OFFSET -2.68224 19.2634 -4.8768
        CHANNELS 3 Zrotation Xrotation Yrotation
        JOINT rShldr
        {
          OFFSET -8.77824 -1.95073 1.46304
          CHANNELS 3 Zrotation Xrotation Yrotation
          JOINT rForeArm
          {
            OFFSET -28.1742 -1.7115 0.48768
            CHANNELS 3 Zrotation Xrotation Yrotation
            JOINT rHand
            {
              OFFSET -22.5879 0.773209 7.07136
              CHANNELS 3 Zrotation Xrotation Yrotation
              JOINT rThumb1
              {
                OFFSET -1.2192 -0.487915 3.41376
                CHANNELS 3 Zrotation Xrotation Yrotation
                JOINT rThumb2
                {
                  OFFSET -3.37035 -0.52449 3.41376
                  CHANNELS 3 Zrotation Xrotation Yrotation
                  End Site
                  {
                    OFFSET -1.78271 -1.18214 1.43049
                  }
                }
              }
              JOINT rIndex1
              {
                OFFSET -7.75947 0.938293 5.60832
                CHANNELS 3 Zrotation Xrotation Yrotation
                JOINT rIndex2
                {
                  OFFSET -2.54057 -0.884171 1.56538
                  CHANNELS 3 Zrotation Xrotation Yrotation
                  End Site
                  {
                    OFFSET -1.62519 -0.234802 1.16502
                  }
                }
              }
              JOINT rMid1
              {
                OFFSET -8.24714 1.18213 3.41376
                CHANNELS 3 Zrotation Xrotation Yrotation
                JOINT rMid2
                {
                  OFFSET -3.10165 -0.590103 1.0647
                  CHANNELS 3 Zrotation Xrotation Yrotation
                  End Site
                  {
                    OFFSET -2.48547 -0.328903 0.83742
                  }
                }
              }
              JOINT rRing1
              {
                OFFSET -8.82822 0.546677 1.51678
                CHANNELS 3 Zrotation Xrotation Yrotation
                JOINT rRing2
                {
                  OFFSET -2.60934 -0.819778 -0.0198488
                  CHANNELS 3 Zrotation Xrotation Yrotation
                  End Site
                  {
                    OFFSET -2.33842 -0.294052 0.168128
                  }
                }
              }
              JOINT rPinky1
              {
                OFFSET -8.27202 -0.0477905 -0.4584
                CHANNELS 3 Zrotation Xrotation Yrotation
                JOINT rPinky2
                {
                  OFFSET -1.82734 -0.647385 -0.700984
                  CHANNELS 3 Zrotation Xrotation Yrotation
                  End Site
                  {
                    OFFSET -1.69225 -0.51767 -0.607171
                  }
                }
              }
            }
          }
        }
      }
      JOINT lCollar
      {
        OFFSET 2.68224 19.2634 -4.8768
        CHANNELS 3 Zrotation Xrotation Yrotation
        JOINT lShldr
        {
          OFFSET 8.77824 -1.95073 1.46304
          CHANNELS 3 Zrotation Xrotation Yrotation
          JOINT lForeArm
          {
            OFFSET 28.1742 -1.7115 0.48768
            CHANNELS 3 Zrotation Xrotation Yrotation
            JOINT lHand
            {
              OFFSET 22.5879 0.773209 7.07136
              CHANNELS 3 Zrotation Xrotation Yrotation
              JOINT lThumb1
              {
                OFFSET 1.2192 -0.487915 3.41376
                CHANNELS 3 Zrotation Xrotation Yrotation
                JOINT lThumb2
                {
                  OFFSET 3.37035 -0.52449 3.41376
                  CHANNELS 3 Zrotation Xrotation Yrotation
                  End Site
                  {
                    OFFSET 1.78271 -1.18214 1.43049
                  }
                }
              }
              JOINT lIndex1
              {
                OFFSET 7.75947 0.938293 5.60832
                CHANNELS 3 Zrotation Xrotation Yrotation
                JOINT lIndex2
                {
                  OFFSET 2.54057 -0.884171 1.56538
                  CHANNELS 3 Zrotation Xrotation Yrotation
                  End Site
                  {
                    OFFSET 1.62519 -0.234802 1.16502
                  }
                }
              }
              JOINT lMid1
              {
                OFFSET 8.24714 1.18213 3.41376
                CHANNELS 3 Zrotation Xrotation Yrotation
                JOINT lMid2
                {
                  OFFSET 3.10165 -0.590103 1.0647
                  CHANNELS 3 Zrotation Xrotation Yrotation
                  End Site
                  {
                    OFFSET 2.48547 -0.328903 0.83742
                  }
                }
              }
              JOINT lRing1
              {
                OFFSET 8.82822 0.546677 1.51678
                CHANNELS 3 Zrotation Xrotation Yrotation
                JOINT lRing2
                {
                  OFFSET 2.60934 -0.819778 -0.0198488
                  CHANNELS 3 Zrotation Xrotation Yrotation
                  End Site
                  {
                    OFFSET 2.33842 -0.294052 0.168128
                  }
                }
              }
              JOINT lPinky1
              {
                OFFSET 8.27202 -0.0477905 -0.4584
                CHANNELS 3 Zrotation Xrotation Yrotation
                JOINT lPinky2
                {
                  OFFSET 1.82734 -0.647385 -0.700984
                  CHANNELS 3 Zrotation Xrotation Yrotation
                  End Site
                  {
                    OFFSET 1.69225 -0.51767 -0.607171
                  }
                }
              }
            }
          }
        }
      }
    }
  }
  JOINT rButtock
  {
    OFFSET -8.77824 4.35084 1.2192
    CHANNELS 3 Zrotation Xrotation Yrotation
    JOINT rThigh
    {
      OFFSET 0 -1.70687 -2.19456
      CHANNELS 3 Zrotation Xrotation Yrotation
      JOINT rShin
      {
        OFFSET 0 -36.8199 0.73152
        CHANNELS 3 Zrotation Xrotation Yrotation
        JOINT rFoot
        {
          OFFSET 0.73152 -45.1104 -5.12064
          CHANNELS 3 Zrotation Xrotation Yrotation
          End Site
          {
            OFFSET -1.1221 -3.69964 12.103
          }
        }
      }
    }
  }
  JOINT lButtock
  {
    OFFSET 8.77824 4.35084 1.2192
    CHANNELS 3 Zrotation Xrotation Yrotation
    JOINT lThigh
    {
      OFFSET 0 -1.70687 -2.19456
      CHANNELS 3 Zrotation Xrotation Yrotation
      JOINT lShin
      {
        OFFSET 0 -36.8199 0.73152
        CHANNELS 3 Zrotation Xrotation Yrotation
        JOINT lFoot
        {
          OFFSET -0.73152 -45.1104 -5.12064
          CHANNELS 3 Zrotation Xrotation Yrotation
          End Site
          {
            OFFSET 1.1221 -3.69964 12.103
          }
        }
      }
    }
  }
}
MOTION
Frames:	8
Frame Time:	0.00833333
70.9628 85.2022 -96.0696 0.0 0.0 0.0 0.602241 -0.00285569 0.0171684 0.166047 -0.00431787 0.0287696 -8.13784e-16 0.0 -1.92573e-16 -2.30777e-15 3.18055e-15 -5.65294e-16 -0.0 0.0 0.0 -0.0 0.0 0.0 -3.98846e-16 1.0871e-17 0.0 -5.20179e-15 1.73937e-16 -9.93923e-16 -1.34776e-13 4.79071e-14 -3.81667e-14 -1.53449e-12 -4.87022e-15 -3.88028e-13 -3.62624e-12 9.00946e-14 -9.09639e-13 -6.27086e-12 1.52667e-13 -1.58312e-12 -3.61629e-12 9.38264e-14 -9.16e-13 7.73091 5.47488 0.417314 -3.62499e-12 9.05464e-14 -9.06458e-13 2.90554 0.965183 0.102902 -3.61627e-12 9.07452e-14 -9.12024e-13 10.2786 0.731801 0.0259123 -3.62623e-12 8.8658e-14 -9.06458e-13 2.22167 -0.733487 -0.20892 -3.9632e-16 1.12593e-17 -1.98785e-16 -9.90381e-15 5.59082e-16 -2.98177e-15 -1.35472e-13 -3.12092e-14 -2.54444e-14 -1.53526e-12 8.96022e-14 -3.94389e-13 -3.62556e-12 1.19849e-13 -9.1918e-13 -6.25456e-12 2.06736e-13 -1.57278e-12 -3.63259e-12 1.23246e-13 -9.09639e-13 -7.73091 5.47488 -0.417314 -3.62583e-12 1.20662e-13 -9.1918e-13 -2.90554 0.965183 -0.102902 -3.64203e-12 1.20563e-13 -9.14409e-13 -10.2786 0.731801 -0.0259123 -3.62762e-12 1.18873e-13 -9.16e-13 -2.22167 -0.733487 0.20892 -2.03217e-16 0.0 -3.88251e-19 0.985459 -4.60218 -0.0812417 -0.00202247 2.78417 -0.00803951 -0.532637 1.81803 0.0982277 2.03217e-16 0.0 3.88251e-19 -0.0701604 -2.29252 0.0218606 0.00846668 -1.39935 0.072334 0.526174 3.69178 -0.136086
72.8639 84.4663 -96.2169 8.6023 0.1548 0.1634 -2.46696 0.38167 -0.284946 1.18886 0.0700369 -0.0609405 -1.04724 0.368383 -0.483344 0.684453 0.631025 -0.70404 -0.0 0.0 0.0 -0.0 0.0 0.0 7.99231e-15 3.73345e-15 2.13682e-14 21.6036 6.11437 0.872382 -7.89937 -4.83393 10.691 0.0167201 -2.87045 -0.401592 -1.22811e-10 4.20355e-10 9.98197e-11 -2.13426e-10 7.29485e-10 1.72359e-10 -1.22804e-10 4.20359e-10 9.9814e-11 7.73091 5.47488 0.417314 -1.22811e-10 4.20355e-10 9.98212e-11 2.90554 0.965183 0.102902 -1.22803e-10 4.20355e-10 9.98183e-11 10.2786 0.731801 0.0259123 -1.22814e-10 4.20354e-10 9.98229e-11 2.22167 -0.733487 -0.20892 7.977e-15 3.73094e-15 2.11546e-14 -20.4094 3.54459 -2.72096 7.67296 -4.62765 -10.4914 -4.35602 -49.1018 0.0250927 1.20879e-11 -1.88219e-10 3.22712e-11 1.73711e-11 -3.18832e-10 5.39787e-11 1.20814e-11 -1.88217e-10 3.22842e-11 -7.73091 5.47488 -0.417314 1.20881e-11 -1.88219e-10 3.22722e-11 -2.90554 0.965183 -0.102902 1.20755e-11 -1.8822e-10 3.22746e-11 -10.2786 0.731801 -0.0259123 1.20878e-11 -1.88221e-10 3.22698e-11 -2.22167 -0.733487 0.20892 -2.03217e-16 0.0 -3.88251e-19 -2.17033 -11.6878 1.82994 -0.0145474 8.11995 0.0164305 -0.911359 -0.360903 -5.29748 2.03217e-16 0.0 3.88251e-19 -2.95039 -0.867027 -0.154183 0.0170932 2.264 0.0376807 0.433274 1.414 -1.69435
72.9423 84.5053 -95.375 9.0679 0.6137 0.3698 -5.71096 0.790536 -0.5965 2.2715 0.142611 -0.153431 -2.15222 0.77864 -0.990798 1.4345 1.27537 -1.44153 -0.0 0.0 0.0 -0.0 0.0 0.0 2.02418e-14 7.68582e-15 4.6264e-14 44.2548 12.558 1.77638 -14.3025 -9.36763 22.2119 -0.00954596 -5.89356 -0.827969 -2.96252e-10 9.77789e-10 2.10642e-10 -5.14442e-10 1.69609e-09 3.63412e-10 -2.96248e-10 9.77793e-10 2.10638e-10 7.73091 5.47488 0.417314 -2.96253e-10 9.77788e-10 2.10642e-10 2.90554 0.965183 0.102902 -2.96246e-10 9.77787e-10 2.10642e-10 10.2786 0.731801 0.0259123 -2.96258e-10 9.77788e-10 2.10646e-10 2.22167 -0.733487 -0.20892 2.0206e-14 7.68018e-15 4.60342e-14 -41.615 7.23511 -5.60429 13.9335 -8.96523 -21.7547 170.813 -79.009 179.809 2.13409e-11 -3.55396e-10 6.28158e-11 3.13946e-11 -6.06785e-10 1.05682e-10 2.1335e-11 -3.55395e-10 6.28323e-11 -7.73091 5.47488 -0.417314 2.13415e-11 -3.55396e-10 6.28177e-11 -2.90554 0.965183 -0.102902 2.13329e-11 -3.55397e-10 6.28177e-11 -10.2786 0.731801 -0.0259123 2.13427e-11 -3.55398e-10 6.28092e-11 -2.22167 -0.733487 0.20892 -2.03217e-16 0.0 -3.88251e-19 -4.95619 -19.1481 3.91516 -0.0331545 13.8195 0.0435798 -1.74089 -2.56502 -10.9554 2.03217e-16 0.0 3.88251e-19 -5.9919 0.58556 -0.332964 0.0312291 6.18143 2.48656e-05 0.200331 -1.01845 -3.32346
72.9839 84.4892 -94.5113 9.4232 0.7561 0.5282 -8.5932 1.1506 -0.889334 3.23518 0.218745 -0.240362 -3.12308 1.10483 -1.45027 2.09989 1.89193 -2.11315 -0.0 0.0 0.0 -0.0 0.0 0.0 2.47746e-14 1.11786e-14 6.41046e-14 64.2271 18.3256 2.74138 -18.4956 -12.4807 32.8268 -0.0717174 -8.60966 -1.21698 -3.61181e-10 1.26088e-09 3.01279e-10 -6.27737e-10 2.18815e-09 5.20245e-10 -3.61179e-10 1.26089e-09 3.01274e-10 7.73091 5.47488 0.417314 -3.61183e-10 1.26088e-09 3.01276e-10 2.90554 0.965183 0.102902 -3.61177e-10 1.26088e-09 3.01279e-10 10.2786 0.731801 0.0259123 -3.6119e-10 1.26088e-09 3.01282e-10 2.22167 -0.733487 -0.20892 2.47237e-14 1.11703e-14 6.38615e-14 -60.2072 10.5371 -8.28797 18.1274 -12.0206 -32.1569 166.843 -32.6944 179.941 4.35149e-11 -5.64898e-10 9.8652e-11 6.46225e-11 -9.56911e-10 1.65082e-10 4.35094e-11 -5.64898e-10 9.86718e-11 -7.73091 5.47488 -0.417314 4.35159e-11 -5.64899e-10 9.86549e-11 -2.90554 0.965183 -0.102902 4.35106e-11 -5.649e-10 9.86527e-11 -10.2786 0.731801 -0.0259123 4.35185e-11 -5.64901e-10 9.86413e-11 -2.22167 -0.733487 0.20892 -2.03217e-16 0.0 -3.88251e-19 -6.92732 -25.7467 6.15052 -0.0539227 18.7915 0.0685091 -2.88635 -4.53804 -16.1405 2.03217e-16 0.0 3.88251e-19 -8.68456 1.98388 -0.506485 0.0476961 9.5907 -0.0321199 -0.123997 -3.12866 -4.81708
72.9113 84.5332 -93.6602 9.2703 0.814 0.7521 -10.5793 1.38875 -1.13522 3.90112 0.303781 -0.313396 -3.77335 1.2212 -1.78951 2.52434 2.43997 -2.61928 -0.0 0.0 0.0 -0.0 0.0 0.0 1.00158e-14 1.35224e-14 6.43068e-14 77.8619 22.4147 3.75992 -20.723 -13.9492 40.4655 -0.138747 -10.5598 -1.50129 -1.5483e-10 8.58139e-10 3.41448e-10 -2.7173e-10 1.49387e-09 5.9153e-10 -1.5483e-10 8.58143e-10 3.41442e-10 7.73091 5.47488 0.417314 -1.54832e-10 8.58138e-10 3.41445e-10 2.90554 0.965183 0.102902 -1.54828e-10 8.58136e-10 3.41449e-10 10.2786 0.731801 0.0259123 -1.5484e-10 8.58139e-10 3.41452e-10 2.22167 -0.733487 -0.20892 9.96278e-15 1.35127e-14 6.40584e-14 -72.958 12.9531 -10.3613 20.4472 -13.5848 -39.7769 164.0 -0.315903 179.956 9.79913e-11 -8.80212e-10 1.47718e-10 1.45861e-10 -1.46247e-09 2.43725e-10 9.79861e-11 -8.80213e-10 1.4774e-10 -7.73091 5.47488 -0.417314 9.79923e-11 -8.80213e-10 1.47721e-10 -2.90554 0.965183 -0.102902 9.79893e-11 -8.80215e-10 1.47718e-10 -10.2786 0.731801 -0.0259123 9.79963e-11 -8.80215e-10 1.47705e-10 -2.22167 -0.733487 0.20892 -2.03217e-16 0.0 -3.88251e-19 -7.89767 -30.273 8.3573 -0.0691149 21.9448 0.0847534 -4.03757 -6.09438 -20.0943 2.03217e-16 0.0 3.88251e-19 -10.52 3.24659 -0.666617 0.0596927 11.7296 -0.0495749 -0.41406 -4.44714 -5.95944
72.9188 84.5779 -92.7916 9.5004 1.0794 0.9338 -11.3113 1.44652 -1.32476 4.14103 0.414685 -0.370102 -3.97801 0.981766 -1.95943 2.60816 2.94005 -2.8903 -0.0 0.0 0.0 -0.0 0.0 0.0 -3.9705e-14 1.41782e-14 3.3979e-14 82.7952 24.1817 4.80454 -21.5142 -14.3984 43.6379 -0.174669 -11.4662 -1.63498 5.76727e-10 -8.23257e-10 3.12934e-10 9.92554e-10 -1.41127e-09 5.47597e-10 5.76727e-10 -8.23254e-10 3.12922e-10 7.73091 5.47488 0.417314 5.76725e-10 -8.23258e-10 3.1293e-10 2.90554 0.965183 0.102902 5.7673e-10 -8.23259e-10 3.12934e-10 10.2786 0.731801 0.0259123 5.76717e-10 -8.23257e-10 3.12937e-10 2.22167 -0.733487 -0.20892 -3.97361e-14 1.41692e-14 3.37394e-14 -77.8494 14.1842 -11.5324 21.3822 -14.2269 -43.2442 162.879 12.5246 179.981 2.24659e-10 -1.44547e-09 2.271e-10 3.34336e-10 -2.34057e-09 3.67378e-10 2.24654e-10 -1.44547e-09 2.27124e-10 -7.73091 5.47488 -0.417314 2.2466e-10 -1.44547e-09 2.27102e-10 -2.90554 0.965183 -0.102902 2.24658e-10 -1.44547e-09 2.271e-10 -10.2786 0.731801 -0.0259123 2.24665e-10 -1.44547e-09 2.27089e-10 -2.22167 -0.733487 0.20892 -2.03217e-16 0.0 -3.88251e-19 -7.9949 -31.9617 10.4261 -0.070537 22.4328 0.0875016 -4.95376 -7.34431 -22.4503 2.03217e-16 0.0 3.88251e-19 -11.1532 4.35208 -0.801801 0.060171 11.9769 -0.0435884 -0.532169 -4.63441 -6.593
72.9951 84.6198 -91.9212 10.0372 1.5707 1.111 -11.149 1.37596 -1.47357 4.07711 0.543427 -0.414998 -3.8659 0.491211 -2.00853 2.44463 3.40385 -2.99342 -0.0 0.0 0.0 -0.0 0.0 0.0 -1.1402e-13 1.36322e-14 -1.78782e-14 81.5909 24.2906 5.82881 -21.5353 -14.4975 43.5817 -0.178432 -11.6262 -1.6583 1.67651e-09 -3.40281e-09 2.35266e-10 2.89364e-09 -5.86941e-09 4.2115e-10 1.67651e-09 -3.40281e-09 2.35246e-10 7.73091 5.47488 0.417314 1.67651e-09 -3.40281e-09 2.35262e-10 2.90554 0.965183 0.102902 1.67651e-09 -3.40281e-09 2.35265e-10 10.2786 0.731801 0.0259123 1.6765e-09 -3.40281e-09 2.35268e-10 2.22167 -0.733487 -0.20892 -1.14012e-13 1.36254e-14 -1.80987e-14 -77.2129 14.5905 -12.0308 21.5878 -14.5771 -43.704 162.995 11.4107 -179.977 4.01609e-10 -2.18441e-09 3.27574e-10 5.97501e-10 -3.4774e-09 5.2232e-10 4.01603e-10 -2.18441e-09 3.27601e-10 -7.73091 5.47488 -0.417314 4.01609e-10 -2.18442e-09 3.27576e-10 -2.90554 0.965183 -0.102902 4.01606e-10 -2.18442e-09 3.27576e-10 -10.2786 0.731801 -0.0259123 4.01615e-10 -2.18442e-09 3.27568e-10 -2.22167 -0.733487 0.20892 -2.03217e-16 0.0 -3.88251e-19 -7.6957 -31.6413 12.2493 -0.0614821 21.0227 0.0802452 -5.62225 -8.40448 -23.6505 2.03217e-16 0.0 3.88251e-19 -10.9282 5.3437 -0.919553 0.0524949 10.8786 -0.0209482 -0.496388 -4.01925 -6.86012
72.9255 84.6417 -90.9889 9.9674 2.0529 1.1124 -10.6346 1.26972 -1.59088 3.90622 0.657857 -0.450166 -3.63198 -0.000146626 -2.01075 2.16585 3.77749 -3.0341 -0.0 0.0 0.0 -0.0 0.0 0.0 -1.85447e-13 1.27323e-14 -6.90086e-14 77.9926 23.7025 6.78128 -21.2711 -14.4879 42.2499 -0.166978 -11.4436 -1.63074 2.69091e-09 -5.83207e-09 1.34786e-10 4.64745e-09 -1.00688e-08 2.54418e-10 2.69092e-09 -5.83207e-09 1.34759e-10 7.73091 5.47488 0.417314 2.69091e-09 -5.83207e-09 1.34783e-10 2.90554 0.965183 0.102902 2.69092e-09 -5.83207e-09 1.34784e-10 10.2786 0.731801 0.0259123 2.69091e-09 -5.83207e-09 1.34789e-10 2.22167 -0.733487 -0.20892 -1.85402e-13 1.27277e-14 -6.92116e-14 -74.3754 14.6799 -12.2069 21.5354 -14.8608 -42.9435 163.619 4.759 -179.924 5.55521e-10 -2.82994e-09 4.17614e-10 8.26511e-10 -4.46981e-09 6.60867e-10 5.55516e-10 -2.82994e-09 4.17641e-10 -7.73091 5.47488 -0.417314 5.55521e-10 -2.82994e-09 4.17615e-10 -2.90554 0.965183 -0.102902 5.55517e-10 -2.82994e-09 4.17617e-10 -10.2786 0.731801 -0.0259123 5.55528e-10 -2.82994e-09 4.17613e-10 -2.22167 -0.733487 0.20892 -2.03217e-16 0.0 -3.88251e-19 -7.39659 -30.5232 13.5848 -0.0503105 19.0438 0.0680592 -6.0188 -9.15078 -24.1267 2.03217e-16 0.0 3.88251e-19 -10.3708 6.23759 -1.04025 0.0441371 9.42261 0.00481059 -0.403001 -3.13813 -6.98877
